<svg xmlns="http://www.w3.org/2000/svg" viewBox="0 0 503.6 503.6"><path fill="#4bf9f4" d="M459.4 373.2l-208 122.4-208-122.4V130l208-122.4 208 122.4z"/><path fill="#4dbff7" d="M251.4 495.6l208.8-120.8-208.8-120-208.8 120z"/><path fill="#cff" d="M43.4 371.6V130L254.6 6.8"/><path fill="#2fd1dd" d="M249.8 7.6L459.4 130v243.2L249 495.6"/><path fill="#0090e0" d="M251.4 254.8v240.8l208.8-120.8z"/><path fill="#20b6ce" d="M459.4 131.6v241.6L248.2 496.4"/><path fill="#0074dd" d="M354.6 312.4L249 495.6l211.2-120.8z"/><g fill="#2f5068"><path d="M251.4 503.6c-1.6 0-2.4 0-4-.8L37.8 380.4c-2.4-1.6-2.4-4-2.4-7.2V130c0-3.2 0-5.6 2.4-7.2L248.2 1.2c2.4-1.6 4.8-1.6 8 0l209.6 121.6c2.4 1.6 2.4 4 2.4 7.2v244c0 3.2 0 5.6-2.4 7.2L254.6 502c-.8.8-1.6 1.6-3.2 1.6zm-200-134.4l200 117.6 200-117.6V134l-200-116.8L51.4 134v235.2z"/><path d="M460.2 377.2c-1.6 0-4.8 0-5.6-.8L251.4 259.6 46.6 378c-4 2.4-4 0-6.4-4s-.8-10.4 2.4-12.8l204.8-117.6c2.4-1.6 5.6-1.6 8 0L460.2 362c4 2.4 6.4 6.4 4 10.4-1.6 1.6-1.6 4.8-4 4.8z"/></g><g fill="#2f5068"><path d="M251.4 259.6c-4.8 0-8-3.2-8-8V12.4c0-4.8 3.2-8 8-8s8 3.2 8 8v239.2c0 4.8-3.2 8-8 8z"/><path d="M251.4 258.8c-1.6 0-2.4 0-4-.8l-204-117.6c-4-2.4-6.4-8.8-4-12.8 2.4-4 6.4-4 10.4-2.4L251.4 242l203.2-117.6c4-2.4 8 0 9.6 3.2 2.4 4-.8 9.6-4.8 12L255.4 258c-1.6.8-2.4.8-4 .8z"/></g><path d="M251.4 497.2c-4.8 0-8-3.2-8-8V250c0-4.8 3.2-8 8-8s8 3.2 8 8v239.2c0 4-3.2 8-8 8z" fill="#2f5068"/></svg>