<svg xmlns="http://www.w3.org/2000/svg" viewBox="0 0 503.6 503.6"><path d="M246.6 379.6c-5.6 0-11.2-2.4-16.8-3.2-2.4 0-4-3.2-3.2-5.6 0-2.4 2.4-4 4.8-4 4.8.8 10.4 1.6 15.2 1.6 2.4 0 4 3.2 4 5.6s-2.4 5.6-4 5.6zm16-4c-2.4 0-4-1.6-4-4s1.6-4 4-4c4.8-.8 10.4-1.6 15.2-2.4 2.4-.8 4 .8 4.8 3.2.8 2.4-.8 4-3.2 4.8-5.6.8-11.2 2.4-16.8 2.4zm-47.2-4.8h-1.6c-5.6-1.6-10.4-4-15.2-6.4-1.6-.8-3.2-3.2-1.6-5.6.8-1.6 3.2-3.2 5.6-1.6 4.8 2.4 9.6 4 14.4 5.6 2.4.8 3.2 3.2 2.4 4.8-.8 1.6-2.4 3.2-4 3.2zm78.4-2.4c-1.6 0-3.2-.8-4-2.4-.8-2.4 0-4 2.4-4.8 4.8-1.6 9.6-4 14.4-6.4 1.6-.8 4 0 5.6 1.6.8 1.6 0 4-1.6 5.6-4.8 2.4-9.6 4.8-15.2 7.2-.8-.8-1.6-.8-1.6-.8zm-107.2-11.2c-.8 0-1.6 0-2.4-.8-4.8-3.2-8.8-6.4-12.8-9.6-1.6-1.6-1.6-4-.8-5.6 1.6-1.6 4-1.6 5.6-.8l12 9.6c1.6 1.6 2.4 4 .8 5.6 0 .8-1.6 1.6-2.4 1.6zm135.2-4c-1.6 0-2.4-.8-3.2-1.6-1.6-1.6-.8-4 .8-5.6l12-9.6c1.6-1.6 4-1.6 5.6 0s1.6 4 0 5.6c-4 4-8 7.2-12.8 10.4-.8.8-1.6.8-2.4.8zm-160-17.6c-.8 0-2.4-.8-3.2-1.6-4-4-7.2-8.8-10.4-12.8-1.6-1.6-.8-4 .8-5.6s4-.8 5.6.8c3.2 4 6.4 8.8 9.6 12 1.6 1.6 1.6 4 0 5.6 0 1.6-.8 1.6-2.4 1.6zm182.4-4c-.8 0-1.6 0-2.4-.8-1.6-1.6-2.4-4-.8-5.6 3.2-4 6.4-8 8.8-12.8.8-1.6 3.2-2.4 5.6-1.6 1.6.8 2.4 3.2 1.6 5.6-3.2 4.8-5.6 9.6-9.6 13.6-.8.8-1.6 1.6-3.2 1.6zm-200-22.4c-1.6 0-3.2-.8-3.2-2.4-2.4-4.8-4.8-10.4-6.4-15.2-.8-2.4.8-4 2.4-4.8 2.4-.8 4 .8 4.8 2.4 1.6 4.8 3.2 9.6 5.6 14.4.8 1.6 0 4-1.6 5.6h-1.6zm216.8-5.6h-1.6c-2.4-.8-3.2-3.2-2.4-5.6 2.4-4.8 4-9.6 4.8-14.4.8-2.4 2.4-3.2 4.8-2.4 2.4.8 3.2 2.4 2.4 4.8-1.6 5.6-3.2 10.4-5.6 16 .8.8-.8 1.6-2.4 1.6zm-226.4-24.8c-1.6 0-3.2-1.6-4-3.2-.8-5.6-1.6-11.2-1.6-16 0-2.4 1.6-4 4-4s4 1.6 4 4c0 4.8.8 10.4 1.6 15.2 0 1.6-1.6 4-4 4zm234.4-5.6c-2.4 0-4-2.4-4-4.8.8-4.8.8-10.4.8-15.2 0-4 0-8-.8-11.2 0-2.4 1.6-4 3.2-4 2.4 0 4 1.6 4 3.2.8 4 .8 8 .8 12 0 5.6 0 11.2-.8 16.8.8 1.6-.8 3.2-3.2 3.2zm-236-25.6s-.8 0 0 0c-2.4 0-4-2.4-4-4 .8-5.6 1.6-11.2 2.4-16 .8-2.4 2.4-3.2 4.8-3.2 2.4.8 3.2 2.4 3.2 4.8-.8 4.8-1.6 10.4-2.4 15.2 0 1.6-2.4 3.2-4 3.2zm234.4-18.4c-1.6 0-3.2-1.6-4-3.2-.8-4.8-2.4-9.6-4.8-14.4-.8-2.4 0-4 2.4-4.8s4 0 4.8 2.4c1.6 4.8 4 10.4 4.8 16 .8 2.4-.8 4-3.2 4.8v-.8zm-228-12.8h-1.6c-2.4-.8-3.2-3.2-2.4-4.8 1.6-4.8 4-10.4 6.4-15.2.8-1.6 3.2-2.4 5.6-1.6 1.6.8 2.4 3.2 1.6 5.6-2.4 4.8-4.8 9.6-6.4 14.4 0 0-1.6 1.6-3.2 1.6zm216-16.8c-1.6 0-2.4-.8-3.2-2.4-2.4-4.8-5.6-8.8-8-12.8-1.6-1.6-.8-4 .8-5.6 1.6-1.6 4-.8 5.6.8 3.2 4.8 6.4 8.8 8.8 13.6.8 1.6 0 4-1.6 5.6-.8.8-1.6.8-2.4.8zm-200.8-12c-.8 0-1.6 0-2.4-.8-1.6-1.6-2.4-4-.8-5.6 3.2-4.8 6.4-8.8 10.4-12.8 1.6-1.6 4-1.6 5.6 0s1.6 4 0 5.6c-3.2 4-7.2 8-9.6 12-.8 1.6-1.6 1.6-3.2 1.6zM337 174c-.8 0-2.4-.8-3.2-1.6-3.2-4-7.2-7.2-11.2-10.4-1.6-1.6-2.4-4-.8-5.6s4-2.4 5.6-.8c4 3.2 8.8 7.2 12 11.2 1.6 1.6 1.6 4 0 5.6-.8 1.6-1.6 1.6-2.4 1.6zm-160.8-9.6c-.8 0-2.4-.8-3.2-1.6-1.6-1.6-.8-4 .8-5.6 4-3.2 8.8-6.4 13.6-9.6 1.6-.8 4-.8 5.6 1.6.8 1.6.8 4-1.6 5.6-4 3.2-8 5.6-12 8.8-.8.8-1.6.8-3.2.8zm135.2-9.6c-.8 0-1.6 0-2.4-.8-4.8-2.4-8.8-4.8-13.6-7.2-2.4-.8-3.2-3.2-2.4-5.6.8-2.4 3.2-3.2 5.6-2.4 4.8 2.4 10.4 4.8 14.4 7.2 1.6.8 2.4 3.2 1.6 5.6 0 2.4-1.6 3.2-3.2 3.2zm-108-6.4c-1.6 0-3.2-.8-4-2.4-.8-2.4 0-4 2.4-5.6 4.8-2.4 10.4-4 15.2-5.6 2.4-.8 4 .8 4.8 2.4.8 2.4-.8 4-2.4 4.8-4.8 1.6-9.6 3.2-14.4 5.6 0 .8-.8.8-1.6.8zm78.4-6.4h-.8c-4.8-1.6-10.4-2.4-15.2-3.2-2.4 0-4-2.4-3.2-4.8 0-2.4 2.4-4 4.8-3.2 5.6.8 11.2 1.6 16 3.2 2.4.8 3.2 2.4 3.2 4.8-.8 2.4-2.4 3.2-4.8 3.2zm-47.2-2.4c-1.6 0-4-1.6-4-3.2 0-2.4 1.6-3.2 3.2-4 5.6-.8 11.2-.8 16.8-.8 2.4 0 4 .8 4 3.2s-1.6 4-4 4c-5.6 0-10.4 0-16 .8z" fill="#c3d7dd"/><g fill="#50ce06"><path d="M251.4 503.6c-1.6 0-2.4 0-4-.8L37.8 380.4c-2.4-1.6-2.4-4-2.4-7.2V130c0-3.2 0-5.6 2.4-7.2L248.2 1.2c2.4-1.6 4.8-1.6 8 0l209.6 121.6c2.4 1.6 2.4 4 2.4 7.2v244c0 3.2 0 5.6-2.4 7.2L254.6 502c-.8.8-1.6 1.6-3.2 1.6zm-200-134.4l200 117.6 200-117.6V134l-200-116.8L51.4 134v235.2z"/><path d="M41.8 380.4c-2.4 0-.8-1.6-2.4-3.2-2.4-2.4-4-10.4-1.6-13.6l206.4-352c1.6-3.2 5.6-4.8 8.8-4s5.6 4 5.6 8v236c0 3.2-1.6 5.6-4 7.2l-208.8 120c-.8.8-2.4 1.6-4 1.6zM243.4 45.2L64.2 350l179.2-103.2V45.2z"/><path d="M461 380.4c-1.6 0-2.4 0-4-.8L247.4 258c-2.4-.8-4-4-4-6.4v-236c0-4 2.4-6.4 5.6-8 3.2-.8 7.2.8 8.8 4l205.6 349.6c1.6 3.2 2.4 13.6 0 16-1.6 1.6-.8 3.2-2.4 3.2zM259.4 246.8L438.6 350 259.4 45.2v201.6z"/><path d="M461 379.6H41.8c-4 0-.8-2.4-1.6-6.4-.8-3.2-1.6-9.6 1.6-11.2l204.8-118.4c2.4-1.6 5.6-1.6 8 0L459.4 362c3.2.8 4.8 6.4 4.8 10.4s1.6 7.2-3.2 7.2zm-389.6-16h359.2l-179.2-104-180 104z"/></g></svg>