<svg xmlns="http://www.w3.org/2000/svg" viewBox="0 0 508.8 508.8"><path d="M254.8 463h-1.6c-2.4 0-4-1.6-4-4s1.6-4 4-4h15.2c2.4 0 4 1.6 4.8 4 0 2.4-1.6 4-3.2 4h-15.2zm-17.6 0c-5.6-.8-11.2-1.6-16.8-3.2-2.4-.8-3.2-2.4-3.2-4.8.8-2.4 2.4-3.2 4.8-3.2 4.8 1.6 10.4 2.4 15.2 3.2 2.4 0 4 2.4 3.2 4.8.8 1.6-.8 3.2-3.2 3.2zm48-2.4c-1.6 0-3.2-1.6-4-3.2-.8-2.4.8-4 3.2-4.8 4.8-.8 10.4-2.4 15.2-4.8 2.4-.8 4 0 4.8 2.4s0 4-2.4 4.8c-4.8 1.6-10.4 3.2-16 4.8l-.8.8zM206 455h-1.6c-4.8-2.4-10.4-4-15.2-7.2-1.6-.8-2.4-3.2-1.6-5.6.8-1.6 3.2-2.4 5.6-1.6 4.8 2.4 9.6 4.8 14.4 6.4 2.4.8 3.2 3.2 2.4 4.8-.8 2.4-2.4 3.2-4 3.2zm108.8-5.6c-1.6 0-3.2-.8-3.2-2.4-.8-1.6 0-4 1.6-5.6 4.8-2.4 8.8-4.8 13.6-8 1.6-1.6 4-.8 5.6.8 1.6 1.6.8 4-.8 5.6-4.8 3.2-9.6 5.6-14.4 8.8-.8.8-1.6.8-2.4.8zM178 439.8c-.8 0-1.6 0-2.4-.8-4.8-3.2-8.8-6.4-12.8-10.4-1.6-1.6-1.6-4 0-5.6s4-1.6 5.6 0l12 9.6c1.6 1.6 2.4 4 .8 5.6 0 .8-1.6 1.6-3.2 1.6zm163.2-8c-.8 0-2.4-.8-3.2-1.6-1.6-1.6-1.6-4 0-5.6 4-3.2 8-7.2 11.2-11.2 1.6-1.6 4-1.6 5.6 0s1.6 4 0 5.6c-4 4-7.2 8-12 11.2 0 1.6-.8 1.6-1.6 1.6zm-186.4-13.6c-.8 0-2.4-.8-3.2-1.6-3.2-4-7.2-8.8-9.6-12.8-1.6-1.6-.8-4 .8-5.6s4-.8 5.6.8c3.2 4 5.6 8.8 9.6 12 1.6 1.6 1.6 4-.8 5.6-.8 1.6-1.6 1.6-2.4 1.6zm208-10.4c-.8 0-1.6 0-2.4-.8-1.6-1.6-2.4-4-.8-5.6 3.2-4 5.6-8.8 8-13.6.8-1.6 3.2-2.4 5.6-1.6 1.6.8 2.4 3.2 1.6 5.6-2.4 4.8-5.6 9.6-8.8 14.4-.8 1.6-2.4 1.6-3.2 1.6zm-225.6-16c-1.6 0-3.2-.8-3.2-2.4-2.4-4.8-4.8-9.6-6.4-15.2-.8-2.4 0-4 2.4-4.8s4 0 4.8 2.4c1.6 4.8 4 9.6 6.4 14.4.8 1.6 0 4-1.6 5.6h-2.4zm240-12h-1.6c-2.4-.8-3.2-3.2-2.4-4.8l4.8-14.4c.8-2.4 2.4-3.2 4.8-3.2 2.4.8 3.2 2.4 3.2 4.8-1.6 5.6-3.2 10.4-4.8 16-.8.8-2.4 1.6-4 1.6zm-250.4-18.4c-1.6 0-3.2-1.6-4-3.2-.8-5.6-2.4-11.2-2.4-16 0-2.4 1.6-4 4-4s4 1.6 4 4c.8 4.8 1.6 10.4 2.4 15.2.8 2.4-.8 4-3.2 4.8l-.8-.8zm258.4-12.8c-2.4 0-4-2.4-4-4.8.8-4.8.8-10.4.8-15.2 0-2.4 1.6-4 4-4s4 1.6 4 4c0 5.6 0 11.2-.8 16.8 0 1.6-2.4 3.2-4 3.2zM123.6 327c-2.4 0-4-.8-4-2.4 0-5.6.8-10.4 1.6-16 0-2.4 2.4-3.2 4.8-3.2s4 2.4 3.2 4.8c-.8 4.8-.8 8.8-1.6 14.4 0 1.6-1.6 2.4-4 2.4zm262.4 0c-2.4 0-4-3.2-4-5.6 0-4.8-.8-11.2-2.4-16-.8-2.4.8-4.8 3.2-4.8 2.4-.8 4 .8 4.8 3.2.8 5.6 1.6 12.8 2.4 18.4 0 .8-1.6 4.8-4 4.8zm-257.6-28.8h-.8c-2.4-.8-3.2-2.4-3.2-4.8 1.6-5.6 3.2-10.4 5.6-16 .8-2.4 3.2-3.2 5.6-2.4 2.4.8 3.2 3.2 2.4 5.6-1.6 4.8-4 9.6-4.8 14.4-1.6 1.6-3.2 3.2-4.8 3.2zm251.2-6.4c-1.6 0-3.2-.8-4-2.4-1.6-4.8-3.2-9.6-5.6-14.4-.8-1.6 0-4 1.6-5.6 1.6-.8 4 0 5.6 1.6 2.4 4.8 4 10.4 6.4 15.2.8 2.4-.8 4-2.4 4.8-.8.8-.8.8-1.6.8zm-239.2-23.2c-.8 0-1.6 0-1.6-.8-1.6-.8-2.4-3.2-1.6-5.6 2.4-4.8 5.6-9.6 8.8-13.6 1.6-1.6 4-2.4 5.6-.8 1.6 1.6 2.4 4 .8 5.6-3.2 4-5.6 8.8-8.8 12.8-.8 1.6-1.6 2.4-3.2 2.4zM366 263c-1.6 0-2.4-.8-3.2-1.6-2.4-4-5.6-8.8-8.8-12.8-1.6-1.6-.8-4 .8-5.6 1.6-1.6 4-.8 5.6.8 3.2 4 6.4 8.8 9.6 13.6.8 1.6.8 4-1.6 5.6H366zm-207.2-20c-.8 0-1.6 0-2.4-.8-1.6-1.6-1.6-4 0-5.6 4-4 8-8 12-11.2 1.6-1.6 4-1.6 5.6.8 1.6 1.6.8 4-.8 5.6-4 3.2-8 7.2-11.2 10.4-.8 0-1.6.8-3.2.8zm187.2-4.8c-.8 0-1.6 0-2.4-.8-4-3.2-8-7.2-12-10.4-1.6-1.6-2.4-4-.8-5.6s4-2.4 5.6-.8c4 3.2 8.8 7.2 12.8 10.4 1.6 1.6 1.6 4 0 5.6-.8 1.6-2.4 1.6-3.2 1.6zm-162.4-16c-1.6 0-2.4-.8-3.2-1.6-.8-1.6-.8-4 .8-5.6 4.8-3.2 9.6-5.6 14.4-8 2.4-.8 4 0 5.6 1.6.8 1.6 0 4-1.6 5.6-4.8 2.4-8.8 4.8-13.6 7.2-.8.8-1.6.8-2.4.8zm136.8-3.2c-.8 0-1.6 0-1.6-.8-4.8-2.4-8.8-4.8-13.6-7.2-2.4-.8-3.2-3.2-2.4-5.6s3.2-3.2 5.6-2.4l14.4 7.2c1.6.8 2.4 3.2 1.6 5.6-1.6 2.4-2.4 3.2-4 3.2zm-108-10.4c-1.6 0-3.2-.8-4-2.4-.8-2.4.8-4 2.4-4.8 4.8-1.6 10.4-3.2 16-4 2.4-.8 4 .8 4.8 3.2s-.8 4-3.2 4.8c-4.8.8-10.4 2.4-15.2 4 0-.8-.8-.8-.8-.8zm78.4-1.6h-.8c-4.8-1.6-10.4-2.4-15.2-3.2-2.4 0-4-2.4-3.2-4.8 0-2.4 2.4-4 4.8-3.2 5.6.8 11.2 2.4 16 3.2 2.4.8 3.2 3.2 2.4 4.8 0 1.6-1.6 3.2-4 3.2zm-47.2-4.8c-2.4 0-4-1.6-4-4s1.6-4 4-4c5.6-.8 11.2-.8 16.8-.8 2.4 0 4 1.6 4 4s-1.6 4-4 4c-6.4 0-11.2 0-16.8.8z" fill="#c3d7dd"/><g fill="#ff9700"><path d="M501.2 471H8.4c-3.2 0-5.6-.8-7.2-3.2-1.6-2.4-1.6-5.6 0-8L247.6 41.4c3.2-4.8 11.2-4.8 13.6 0l246.4 419.2c1.6 2.4 1.6 4.8 0 7.2-.8 2.4-4 3.2-6.4 3.2zM22.8 455h464l-232-395.2L22.8 455z"/><path d="M254.8 423.8c-1.6 0-2.4 0-4-.8l-73.6-43.2c-2.4-2.4-2.4-4.8-2.4-8v-86.4c0-3.2 0-5.6 2.4-7.2l74.4-43.2c2.4-1.6 4.8-1.6 8 0l73.6 43.2c2.4 1.6 2.4 4 2.4 7.2v86.4c0 3.2 0 5.6-2.4 7.2l-74.4 43.2c-1.6.8-2.4 1.6-4 1.6zm-64-56l64 38.4 64-38.4v-77.6l-64-38.4-64 38.4v77.6z"/><path d="M326.8 377.4c-1.6 0-5.6-.8-6.4-1.6l-65.6-38.4-71.2 40.8c-4 2.4-4 0-6.4-4s.8-11.2 4.8-12.8l68.8-40c2.4-1.6 5.6-1.6 8 0l69.6 40c4 2.4 7.2 8.8 4.8 12.8-1.6 2.4-3.2 3.2-6.4 3.2z"/><path d="M254.8 336.6c-4.8 0-8-3.2-8-8v-84.8c0-4.8 3.2-8 8-8s8 3.2 8 8v84.8c0 4.8-3.2 8-8 8z"/><path d="M254.8 336.6c-1.6 0-2.4 0-4-.8l-68.8-40c-4-2.4-5.6-8.8-4-12 2.4-4 6.4-4.8 10.4-2.4l66.4 38.4 67.2-38.4c4-2.4 8-1.6 10.4 2.4s.8 9.6-3.2 12l-70.4 40.8h-4z"/><path d="M254.8 421.4c-4.8 0-8-3.2-8-8v-84.8c0-4.8 3.2-8 8-8s8 3.2 8 8v84.8c0 4-3.2 8-8 8z"/></g></svg>