<svg xmlns="http://www.w3.org/2000/svg" viewBox="0 0 496 496"><circle cx="248" cy="248" r="240" fill="#ff9700"/><path d="M488 248c0 132.8-107.2 240-240 240" fill="#ff6d00"/><path d="M8 248C8 115.2 115.2 8 248 8" fill="#ffc200"/><path d="M248 496C111.2 496 0 384.8 0 248S111.2 0 248 0s248 111.2 248 248-111.2 248-248 248zm0-480C120 16 16 120 16 248s104 232 232 232 232-104 232-232S376 16 248 16z" fill="#2f5068"/><path fill="#707a7f" d="M248 8.8L41.6 360h412.8z"/><path fill="#4d5b60" d="M299.2 96L248 8.8 41.6 360h103.2z"/><path d="M454.4 368H41.6c-3.2 0-5.6-2.4-7.2-4.8-1.6-2.4-1.6-5.6 0-8L241.6 4c3.2-4.8 10.4-4.8 13.6 0l206.4 351.2c1.6 2.4 1.6 5.6 0 8.8-1.6 1.6-4 4-7.2 4zM55.2 352h385.6L248 24 55.2 352z" fill="#2f5068"/><path fill="#ffc200" d="M248 358.4L350.4 184H145.6z"/><path fill="#ff9700" d="M248 358.4L350.4 184H216z"/><path d="M248 367.2c-2.4 0-5.6-1.6-6.4-4L139.2 188.8c-1.6-2.4-1.6-6.4 0-8.8 1.6-2.4 4-4.8 7.2-4.8h204.8c3.2 0 5.6 2.4 7.2 4.8 1.6 2.4 1.6 5.6 0 8l-104 175.2c-.8 2.4-4 4-6.4 4zM159.2 192L248 342.4 336.8 192H159.2z" fill="#2f5068"/></svg>