<svg xmlns="http://www.w3.org/2000/svg" viewBox="0 0 504 504"><path d="M252 441.6h-12.8c-2.4 0-4-2.4-4-4 0-2.4 2.4-4 4-4 4 0 8 1.6 12 1.6l4 .8c2.4 0 4 .8 4 2.4 0 2.4-1.6 3.2-4 3.2H252zm20-.8c-2.4 0-4-1.6-4-3.2 0-2.4 1.6-4 3.2-4 5.6-.8 10.4-1.6 15.2-2.4 2.4 0 4 .8 4.8 3.2.8 2.4-.8 4-3.2 4.8-4.8 0-10.4.8-16 1.6zm-48-1.6s-.8 0 0 0c-5.6-.8-11.2-1.6-16.8-3.2-2.4 0-3.2-2.4-3.2-4.8.8-2.4 2.4-3.2 4.8-3.2 4.8 1.6 10.4 2.4 15.2 3.2 2.4 0 4 2.4 3.2 4.8 0 2.4-1.6 3.2-3.2 3.2zm79.2-4.8c-1.6 0-3.2-.8-4-3.2-.8-2.4.8-4 2.4-4.8 4.8-1.6 10.4-3.2 15.2-4.8 2.4-.8 4 0 4.8 2.4s0 4-2.4 4.8c-4.8 1.6-10.4 4-15.2 4.8 0 .8-.8.8-.8.8zM192.8 432h-1.6c-4.8-1.6-10.4-4-15.2-5.6-2.4-.8-3.2-3.2-2.4-5.6s3.2-3.2 5.6-2.4c4.8 2.4 9.6 4 14.4 5.6 2.4.8 3.2 3.2 2.4 4.8 0 2.4-1.6 3.2-3.2 3.2zm140-8.8c-1.6 0-3.2-.8-3.2-2.4-.8-1.6 0-4 1.6-5.6 4.8-2.4 9.6-4.8 13.6-7.2 1.6-.8 4-.8 5.6 1.6.8 1.6.8 4-1.6 5.6-4.8 2.4-9.6 5.6-14.4 8h-1.6zm-169.6-4c-.8 0-1.6 0-1.6-.8-4.8-2.4-9.6-5.6-14.4-8.8-1.6-1.6-2.4-4-.8-5.6 1.6-1.6 4-2.4 5.6-.8 4 3.2 8.8 5.6 13.6 8 1.6.8 2.4 3.2 1.6 5.6-.8 1.6-2.4 2.4-4 2.4zM360 406.4c-1.6 0-2.4-.8-3.2-1.6-1.6-1.6-.8-4 .8-5.6l12-9.6c1.6-1.6 4-1.6 5.6.8 1.6 1.6 1.6 4-.8 5.6-4 3.2-8.8 7.2-12.8 10.4H360zm-223.2-4.8c-.8 0-1.6 0-2.4-.8-4-3.2-8.8-7.2-12-10.4-1.6-1.6-1.6-4 0-5.6 1.6-1.6 4-1.6 5.6 0 4 3.2 8 7.2 12 10.4 1.6 1.6 2.4 4 .8 5.6-1.6 0-2.4.8-4 .8zm248-16c-.8 0-2.4 0-2.4-.8-1.6-1.6-1.6-4 0-5.6 4-4 7.2-8 10.4-12 1.6-1.6 4-1.6 5.6-.8 1.6 1.6 1.6 4 .8 5.6-3.2 4-7.2 8-11.2 12-1.6 1.6-2.4 1.6-3.2 1.6zM113.6 380c-.8 0-2.4-.8-3.2-1.6-4-4-7.2-8-10.4-12.8-1.6-1.6-.8-4 .8-5.6 1.6-1.6 4-.8 5.6.8l9.6 12c1.6 1.6 1.6 4 0 5.6-.8.8-1.6 1.6-2.4 1.6zm291.2-18.4c-.8 0-1.6 0-2.4-.8-1.6-1.6-2.4-4-.8-5.6 3.2-4 5.6-8.8 8-13.6.8-1.6 3.2-2.4 5.6-1.6 1.6.8 2.4 3.2 1.6 5.6-2.4 4.8-5.6 9.6-8.8 13.6-.8 1.6-1.6 2.4-3.2 2.4zm-310.4-7.2c-1.6 0-2.4-.8-3.2-1.6-3.2-4.8-5.6-9.6-8-14.4-.8-1.6 0-4 1.6-5.6 1.6-.8 4 0 5.6 1.6 2.4 4.8 4.8 8.8 8 13.6.8 1.6.8 4-1.6 5.6-.8.8-1.6.8-2.4.8zm326.4-20.8h-1.6c-2.4-.8-3.2-3.2-1.6-5.6 2.4-4.8 4-9.6 5.6-14.4.8-2.4 3.2-3.2 4.8-2.4 2.4.8 3.2 3.2 2.4 4.8-1.6 4.8-4 10.4-6.4 15.2 0 1.6-1.6 2.4-3.2 2.4zm-340.8-8c-1.6 0-3.2-.8-4-2.4-2.4-4.8-4-10.4-5.6-15.2-.8-2.4.8-4 2.4-4.8 2.4-.8 4 .8 4.8 2.4 1.6 4.8 3.2 9.6 5.6 14.4.8 2.4 0 4-2.4 5.6H80zm351.2-22.4h-.8c-2.4-.8-3.2-2.4-3.2-4.8 1.6-4.8 2.4-10.4 3.2-15.2 0-2.4 2.4-4 4.8-3.2 2.4 0 4 2.4 3.2 4.8-.8 5.6-2.4 10.4-3.2 16 0 1.6-1.6 2.4-4 2.4zm-360.8-8c-1.6 0-3.2-1.6-4-3.2-.8-5.6-2.4-10.4-2.4-16 0-2.4 1.6-4 3.2-4.8 2.4 0 4 1.6 4.8 3.2.8 4.8 1.6 10.4 2.4 15.2.8 2.4-.8 4-3.2 4.8 0 .8-.8.8-.8.8zM436.8 272c-2.4 0-4-2.4-4-4 .8-4.8.8-10.4.8-16 0-4.8 0-9.6-.8-14.4 0-2.4 1.6-4 4-4s4 1.6 4 4c.8 4.8.8 10.4.8 15.2 0 5.6 0 11.2-.8 16 0 1.6-1.6 3.2-4 3.2zM66.4 260c-2.4 0-4 0-4-2.4v-15.2c0-2.4 1.6-4 4-3.2 2.4 0 4 2.4 4 4v13.6c0 3.2-1.6 3.2-4 3.2zm1.6-28s-.8 0 0 0c-2.4 0-4-2.4-4-4.8.8-5.6 1.6-11.2 3.2-16 .8-2.4 2.4-3.2 4.8-3.2 2.4.8 3.2 2.4 3.2 4.8-.8 4.8-2.4 10.4-2.4 15.2-.8 2.4-3.2 4-4.8 4zm367.2-7.2c-1.6 0-4-1.6-4-3.2-.8-4.8-1.6-10.4-3.2-15.2-.8-2.4.8-4 3.2-4.8 2.4-.8 4 .8 4.8 3.2 1.6 5.6 2.4 10.4 3.2 16 0 1.6-1.6 4-4 4zm-360.8-24h-.8c-2.4-.8-3.2-3.2-2.4-4.8 1.6-4.8 3.2-10.4 5.6-15.2.8-2.4 3.2-3.2 5.6-2.4s3.2 3.2 2.4 5.6c-1.6 4.8-4 9.6-5.6 14.4-.8.8-2.4 2.4-4.8 2.4zm352.8-6.4c-1.6 0-3.2-.8-4-2.4-1.6-4.8-4-9.6-5.6-14.4-.8-2.4 0-4 1.6-5.6 2.4-.8 4 0 5.6 1.6 2.4 4.8 4 9.6 6.4 15.2.8 2.4 0 4-2.4 4.8-.8.8-1.6.8-1.6.8zm-340-23.2c-.8 0-1.6 0-1.6-.8-1.6-.8-2.4-3.2-1.6-5.6 2.4-4.8 5.6-9.6 8-14.4.8-1.6 4-2.4 5.6-1.6 1.6.8 2.4 4 1.6 5.6-2.4 4.8-5.6 8.8-8 13.6-1.6 2.4-3.2 3.2-4 3.2zm326.4-6.4c-1.6 0-2.4-.8-3.2-2.4-2.4-4.8-5.6-8.8-8-13.6-1.6-1.6-.8-4 .8-5.6 1.6-1.6 4-.8 5.6.8 3.2 4.8 5.6 9.6 8.8 13.6.8 1.6 0 4-1.6 5.6-.8 1.6-1.6 1.6-2.4 1.6zM104 144c-.8 0-1.6 0-2.4-.8-1.6-1.6-2.4-4-.8-5.6 3.2-4 6.4-8.8 10.4-12.8 1.6-1.6 4-1.6 5.6 0 1.6 1.6 1.6 4 0 5.6-3.2 4-7.2 8-9.6 12-.8.8-1.6 1.6-3.2 1.6zm292-5.6c-.8 0-2.4-.8-3.2-1.6-3.2-4-7.2-8-10.4-12-1.6-1.6-1.6-4 0-5.6s4-1.6 5.6 0c4 4 7.2 8 11.2 12 1.6 1.6.8 4-.8 5.6-.8 1.6-1.6 1.6-2.4 1.6zM125.6 120c-.8 0-2.4-.8-3.2-1.6-1.6-1.6-1.6-4 0-5.6 4-4 8-7.2 12.8-10.4 1.6-1.6 4-.8 5.6.8 1.6 1.6.8 4-.8 5.6-4 3.2-8 6.4-12 10.4-.8.8-1.6.8-2.4.8zm248-4c-.8 0-1.6 0-2.4-.8l-12-9.6c-1.6-1.6-2.4-4-.8-5.6s4-2.4 5.6-.8c4.8 3.2 8.8 6.4 12.8 10.4 1.6 1.6 1.6 4 0 5.6-.8 0-2.4.8-3.2.8zm-223.2-15.2c-1.6 0-2.4-.8-3.2-1.6-1.6-1.6-.8-4 .8-5.6 4.8-3.2 9.6-5.6 14.4-8 1.6-.8 4 0 5.6 1.6.8 1.6 0 4-1.6 5.6-4.8 2.4-8.8 4.8-13.6 8-.8-.8-1.6 0-2.4 0zm197.6-4c-.8 0-1.6 0-2.4-.8-4-2.4-8.8-4.8-13.6-7.2-1.6-.8-2.4-3.2-1.6-5.6.8-1.6 3.2-2.4 5.6-1.6 4.8 2.4 9.6 4.8 14.4 8 1.6.8 2.4 3.2 1.6 5.6-1.6.8-3.2 1.6-4 1.6zM178.4 85.6c-1.6 0-3.2-.8-4-2.4-.8-2.4 0-4 2.4-5.6 4.8-2.4 10.4-4 15.2-5.6 2.4-.8 4 .8 4.8 2.4s-.8 4-2.4 4.8c-4.8 1.6-9.6 3.2-14.4 5.6 0 .8-.8.8-1.6.8zm140.8-2.4h-1.6c-4.8-1.6-9.6-3.2-15.2-4.8-2.4-.8-3.2-3.2-2.4-4.8s3.2-3.2 4.8-2.4c5.6 1.6 10.4 3.2 15.2 5.6 2.4.8 3.2 3.2 2.4 4.8 0 0-1.6 1.6-3.2 1.6zm-110.4-8c-1.6 0-3.2-1.6-4-3.2-.8-2.4.8-4 3.2-4.8 5.6-1.6 10.4-2.4 16-3.2 2.4 0 4 1.6 4.8 3.2 0 2.4-.8 4-3.2 4.8-4.8.8-10.4 1.6-15.2 3.2h-1.6zm80-1.6c-.8 0-.8 0 0 0-5.6-.8-11.2-1.6-16-2.4-2.4 0-4-2.4-3.2-4.8s2.4-4 4.8-3.2c5.6.8 11.2 1.6 16 2.4 2.4.8 3.2 2.4 3.2 4.8-1.6 2.4-3.2 3.2-4.8 3.2zm-48-5.6c-2.4 0-4 0-4-2.4s1.6-3.2 4-3.2h16c2.4 0 4 2.4 4 4s-2.4 2.4-4 2.4c-5.6 0-10.4-.8-16-.8zM252 368.8c-1.6 0-2.4-.8-3.2-1.6l-4.8-8.8c-.8-1.6-.8-4 1.6-5.6 1.6-.8 4-.8 5.6 1.6l1.6 3.2 4.8-8c.8-1.6 4-2.4 5.6-1.6s2.4 3.2 1.6 5.6l-8 13.6c-2.4.8-3.2 1.6-4.8 1.6zm-13.6-22.4c-1.6 0-2.4-.8-3.2-1.6l-8-13.6c-.8-1.6-.8-4 1.6-5.6 1.6-.8 4-.8 5.6 1.6l8 13.6c.8 1.6.8 4-1.6 5.6h-2.4zm29.6-4.8c-.8 0-1.6 0-2.4-.8-1.6-.8-2.4-3.2-1.6-5.6l8-13.6c.8-1.6 3.2-2.4 5.6-1.6 1.6.8 2.4 3.2 1.6 5.6l-8 13.6c0 1.6-1.6 2.4-3.2 2.4zm-45.6-23.2c-1.6 0-2.4-.8-3.2-1.6l-8-13.6c-.8-1.6-.8-4 1.6-5.6 1.6-.8 4-.8 5.6 1.6l8 13.6c.8 1.6.8 4-1.6 5.6h-2.4zm62.4-4.8c-.8 0-1.6 0-2.4-.8-1.6-.8-2.4-3.2-1.6-5.6l8-13.6c.8-1.6 3.2-2.4 5.6-1.6 1.6.8 2.4 3.2 1.6 5.6l-8 13.6c-.8 1.6-2.4 2.4-3.2 2.4zm-78.4-22.4c-1.6 0-2.4-.8-3.2-1.6l-8-13.6c-.8-1.6-.8-4 1.6-5.6 1.6-.8 4-.8 5.6 1.6l8 13.6c.8 1.6.8 4-1.6 5.6h-2.4zm94.4-4.8c-.8 0-1.6 0-2.4-.8-1.6-.8-2.4-3.2-1.6-5.6l8-13.6c.8-1.6 3.2-2.4 5.6-1.6 1.6.8 2.4 3.2 1.6 5.6l-8 13.6c-.8 1.6-1.6 2.4-3.2 2.4zm-110.4-23.2c-1.6 0-2.4-.8-3.2-1.6l-8-13.6c-.8-1.6-.8-4 1.6-5.6 1.6-.8 4-.8 5.6 1.6l8 13.6c.8 1.6.8 4-1.6 5.6h-2.4zm126.4-4.8c-.8 0-1.6 0-2.4-.8-1.6-.8-2.4-3.2-1.6-5.6l8-13.6c.8-1.6 3.2-2.4 5.6-1.6 1.6.8 2.4 3.2 1.6 5.6l-8 13.6c-.8 1.6-1.6 2.4-3.2 2.4zM173.6 236c-1.6 0-2.4-.8-3.2-1.6l-8-13.6c-.8-1.6-.8-4 1.6-5.6 1.6-.8 4-.8 5.6 1.6l8 13.6c.8 1.6.8 4-1.6 5.6h-2.4zm159.2-4.8c-.8 0-1.6 0-2.4-.8-1.6-.8-2.4-3.2-1.6-5.6l8-13.6c.8-1.6 3.2-2.4 5.6-1.6 1.6.8 2.4 3.2 1.6 5.6l-8 13.6c0 1.6-1.6 2.4-3.2 2.4zM157.6 208c-1.6 0-2.4-.8-3.2-1.6l-8-13.6c-.8-1.6-.8-4 1.6-5.6 1.6-.8 4-.8 5.6 1.6l8 13.6c.8 1.6.8 4-1.6 5.6h-2.4zm192-4.8c-.8 0-1.6 0-2.4-.8-1.6-.8-2.4-3.2-1.6-5.6l4-7.2c-.8-.8-.8-3.2-.8-4 0-2.4 1.6-5.6 4-5.6h3.2c1.6 0 2.4 2.4 3.2 4 .8 1.6.8 4 0 4.8l-6.4 12c-.8 1.6-2.4 2.4-3.2 2.4zM336.8 188h-16c-2.4 0-4-1.6-4-4s1.6-4 4-4h16c2.4 0 4 1.6 4 4s-1.6 4-4 4zm-32 0h-16c-2.4 0-4-1.6-4-4s1.6-4 4-4h16c2.4 0 4 1.6 4 4s-1.6 4-4 4zm-32 0h-16c-2.4 0-4-1.6-4-4s1.6-4 4-4h16c2.4 0 4 1.6 4 4s-1.6 4-4 4zm-32 0h-16c-2.4 0-4-1.6-4-4s1.6-4 4-4h16c2.4 0 4 1.6 4 4s-1.6 4-4 4zm-32 0h-16c-2.4 0-4-1.6-4-4s1.6-4 4-4h16c2.4 0 4 1.6 4 4s-1.6 4-4 4zm-32 0h-16c-2.4 0-4-1.6-4-4s1.6-4 4-4h16c2.4 0 4 1.6 4 4s-1.6 4-4 4z" fill="#c3d7dd"/><g fill="#ff9700"><path d="M252 504C112.8 504 0 391.2 0 252S112.8 0 252 0s252 112.8 252 252-112.8 252-252 252zm0-488C121.6 16 16 121.6 16 252s105.6 236 236 236 236-105.6 236-236S382.4 16 252 16z"/><path d="M461.6 372H42.4c-3.2 0-5.6-.8-7.2-4-1.6-2.4-1.6-5.6 0-8L244.8 4C248-.8 256-.8 258.4 4L468 360.8c1.6 2.4 1.6 4.8 0 8-.8 2.4-3.2 3.2-6.4 3.2zM56 356h391.2L252 23.2 56 356z"/></g></svg>