<svg xmlns="http://www.w3.org/2000/svg" viewBox="0 0 496 496"><path d="M455.9 128c-22.4-38.4-62.4-60-104-60-20.8-36-59.2-60.8-104-60.8S164.7 32 143.9 68c-41.6 0-81.6 21.6-104 60s-20.8 84 0 120c-20.8 36-22.4 81.6 0 120s62.4 60 104 60c20.8 36 59.2 60 104 60s83.2-24 104-60c41.6 0 81.6-21.6 104-60s20.8-84 0-120c20.8-36 22.4-81.6 0-120z" fill="#1ac4ff"/><g fill="#2f5068"><path d="M143.9 316c-22.4 0-44-5.6-64-16.8-60.8-36-82.4-114.4-47.2-175.2 22.4-39.2 65.6-64 111.2-64 22.4 0 44 5.6 64 16.8 60.8 35.2 82.4 113.6 47.2 174.4-23.2 40-65.6 64.8-111.2 64.8zm0-240.8c-40 0-77.6 21.6-97.6 56-31.2 53.6-12.8 122.4 41.6 153.6 16.8 9.6 36.8 15.2 56 15.2 40 0 77.6-21.6 97.6-56 31.2-53.6 12.8-123.2-41.6-153.6-16.8-9.6-36-15.2-56-15.2z"/><path d="M351.9 436c-22.4 0-44-5.6-64-16.8-29.6-16.8-50.4-44.8-59.2-77.6s-4-67.2 12.8-96.8c22.4-39.2 65.6-64 111.2-64 22.4 0 44 5.6 64 16.8 29.6 16.8 50.4 44.8 59.2 77.6 8.8 32.8 4 67.2-12.8 96.8-23.2 39.2-65.6 64-111.2 64zm0-240.8c-40 0-77.6 21.6-97.6 56-15.2 26.4-19.2 56-11.2 85.6 8 28.8 26.4 53.6 52.8 68 16.8 9.6 36.8 15.2 56 15.2 40 0 77.6-21.6 97.6-56 15.2-26.4 19.2-56 11.2-85.6-8-28.8-26.4-53.6-52.8-68-16.8-9.6-36-15.2-56-15.2z"/><path d="M247.9 256c-70.4 0-128-57.6-128-128S177.5 0 247.9 0s128 57.6 128 128-57.6 128-128 128zm0-240.8c-62.4 0-112.8 50.4-112.8 112.8s50.4 112.8 112.8 112.8S360.7 190.4 360.7 128 310.3 15.2 247.9 15.2z"/><path d="M247.9 496c-70.4 0-128-57.6-128-128s57.6-128 128-128 128 57.6 128 128-57.6 128-128 128zm0-240.8c-62.4 0-112.8 50.4-112.8 112.8s50.4 112.8 112.8 112.8S360.7 430.4 360.7 368s-50.4-112.8-112.8-112.8z"/><path d="M143.9 436c-45.6 0-88-24.8-111.2-64-35.2-60.8-13.6-139.2 47.2-174.4 19.2-11.2 41.6-16.8 64-16.8 45.6 0 88 24.8 111.2 64 35.2 60.8 14.4 139.2-47.2 174.4-20 11.2-41.6 16.8-64 16.8zm0-240.8c-20 0-39.2 5.6-56 15.2-53.6 31.2-72 100-41.6 153.6 20 34.4 57.6 56 97.6 56 20 0 39.2-5.6 56-15.2 53.6-31.2 72-100 41.6-153.6-20-34.4-57.6-56-97.6-56z"/><path d="M351.9 316c-45.6 0-88-24.8-111.2-64-16.8-29.6-21.6-64-12.8-96.8s30.4-60.8 59.2-77.6c19.2-11.2 41.6-16.8 64-16.8 45.6 0 88 24.8 111.2 64 16.8 29.6 21.6 64 12.8 96.8s-30.4 60.8-60 77.6c-18.4 10.4-40.8 16.8-63.2 16.8zm0-240.8c-20 0-39.2 5.6-56 15.2-26.4 15.2-44.8 39.2-52.8 68-8 28.8-4 59.2 11.2 85.6 20 34.4 57.6 56 97.6 56 20 0 39.2-5.6 56-15.2 26.4-15.2 44.8-39.2 52.8-68s4-59.2-11.2-85.6c-20-34.4-57.6-56-97.6-56z"/></g><path d="M360.7 128c0-19.2-4.8-36.8-12.8-52-18.4.8-36 5.6-52 15.2s-29.6 22.4-39.2 37.6c13.6 24.8 17.6 54.4 12.8 82.4 21.6-18.4 48.8-28.8 77.6-30.4 8.8-16 13.6-34.4 13.6-52.8z" fill="#ea789b"/><path d="M207.9 76.8c16.8 9.6 29.6 22.4 40 36.8 10.4-14.4 24-27.2 40-36.8 15.2-8.8 32.8-14.4 50.4-16-20.8-28-53.6-45.6-90.4-45.6s-69.6 18.4-90.4 45.6c17.6 1.6 34.4 7.2 50.4 16z" fill="#1dfaff"/><path d="M157.5 60.8c17.6 1.6 34.4 7.2 50.4 16 16.8 9.6 29.6 22.4 40 36.8 10.4-14.4 24-27.2 40-36.8 15.2-8.8 32.8-14.4 50.4-16" fill="#1ac4ff"/><path d="M336.7 196.8c-29.6 4-56 19.2-74.4 42.4 30.4-4 56.8-20 74.4-42.4z" fill="#ff9100"/><path d="M204.7 248c-27.2-9.6-49.6-28-64.8-52-18.4.8-36 5.6-52 15.2s-29.6 22.4-39.2 37.6c9.6 15.2 22.4 28 39.2 37.6 16 9.6 33.6 14.4 52 15.2 15.2-25.6 37.6-44 64.8-53.6z" fill="#ea789b"/><path d="M46.3 132c-18.4 32-19.2 69.6-5.6 100.8 10.4-13.6 23.2-26.4 39.2-35.2s33.6-14.4 52-16.8c-7.2-16-12-34.4-12-52.8s4-36 11.2-52c-35.2 4-67.2 24.8-84.8 56z" fill="#1dfaff"/><path d="M40.7 232.8c10.4-13.6 23.2-26.4 39.2-35.2s33.6-14.4 52-16.8c-7.2-16-12-34.4-12-52.8s4-36 11.2-52" fill="#1ac4ff"/><path d="M336.7 299.2c-17.6-23.2-44-38.4-74.4-43.2 18.4 24 45.6 39.2 74.4 43.2z" fill="#ffe600"/><path d="M287.9 419.2c-16-9.6-29.6-21.6-40-36.8-10.4 14.4-24 27.2-40 36.8-15.2 8.8-32.8 14.4-50.4 16 20.8 28 53.6 45.6 90.4 45.6s69.6-18.4 90.4-45.6c-17.6-1.6-35.2-7.2-50.4-16z" fill="#1dfaff"/><path d="M338.3 435.2c-17.6-1.6-34.4-7.2-50.4-16-16-9.6-29.6-21.6-40-36.8-10.4 14.4-24 27.2-40 36.8-15.2 8.8-32.8 14.4-50.4 16" fill="#1ac4ff"/><path d="M79.9 298.4c-16-8.8-28.8-21.6-39.2-35.2-13.6 32-12.8 68.8 5.6 100.8 17.6 31.2 49.6 52 84.8 56-7.2-16-11.2-33.6-11.2-52 0-19.2 4-36.8 12-52.8-18.4-1.6-36-7.2-52-16.8z" fill="#1dfaff"/><path d="M131.1 420c-7.2-16-11.2-33.6-11.2-52 0-19.2 4-36.8 12-52.8-18.4-1.6-36-7.2-52-16.8-16-8.8-28.8-21.6-39.2-35.2" fill="#1ac4ff"/><path d="M449.5 364.8c15.2-26.4 19.2-56 11.2-85.6-1.6-5.6-3.2-10.4-5.6-16-10.4 14.4-23.2 26.4-39.2 35.2-16 8.8-33.6 14.4-52 16.8 7.2 16 12 34.4 12 52.8s-4 36-11.2 52c35.2-4 67.2-24.8 84.8-55.2z" fill="#1dfaff"/><path d="M455.1 263.2c-10.4 14.4-23.2 26.4-39.2 35.2-16 8.8-33.6 14.4-52 16.8 7.2 16 12 34.4 12 52.8s-4 36-11.2 52" fill="#1ac4ff"/><path d="M447.1 248c-9.6-15.2-23.2-28-39.2-37.6s-33.6-14.4-52-15.2c-15.2 24-37.6 42.4-64.8 52 27.2 9.6 49.6 28 64.8 52.8 18.4-.8 36-5.6 52-15.2 16.8-8.8 29.6-21.6 39.2-36.8z" fill="#ffa9c8"/><path d="M360.7 368c0-19.2-4.8-36.8-12.8-52.8-28.8-.8-56-12-77.6-30.4 4.8 28 0 57.6-12.8 82.4 9.6 15.2 23.2 28 39.2 37.6 16 8.8 33.6 14.4 52 15.2 7.2-15.2 12-32.8 12-52z" fill="#ea789b"/><path d="M199.9 405.6c16.8-9.6 29.6-22.4 39.2-37.6-4.8-8.8-8-17.6-10.4-26.4-4.8-18.4-5.6-37.6-2.4-56-21.6 18.4-48.8 28.8-77.6 30.4-8 16-12.8 33.6-12.8 52.8 0 19.2 4.8 36.8 12.8 52.8 17.6-1.6 35.2-7.2 51.2-16z" fill="#ffa9c8"/><path d="M415.9 197.6c16 8.8 28.8 20.8 39.2 35.2 2.4-4.8 4-10.4 5.6-16 8-28.8 4-59.2-11.2-85.6-17.6-30.4-49.6-51.2-84.8-55.2 7.2 16 11.2 33.6 11.2 52 0 19.2-4 36.8-12 52.8 18.4 1.6 36 7.2 52 16.8z" fill="#1dfaff"/><path d="M364.7 76c7.2 16 11.2 33.6 11.2 52 0 19.2-4 36.8-12 52.8 18.4 1.6 36 7.2 52 16.8 16 8.8 28.8 20.8 39.2 35.2" fill="#1ac4ff"/><path d="M159.1 299.2c29.6-4 56-19.2 74.4-43.2-30.4 4.8-56.8 20.8-74.4 43.2zm88.8-153.6c-1.6 4-3.2 8.8-4.8 13.6-6.4 24-4.8 48.8 4.8 72 11.2-28.8 11.2-59.2 0-85.6z" fill="#ffe600"/><path d="M135.1 128c0 19.2 4.8 36.8 12.8 52.8 28.8.8 56 12 77.6 30.4-3.2-18.4-2.4-36.8 2.4-56 2.4-9.6 6.4-18.4 10.4-26.4-9.6-15.2-22.4-28-39.2-37.6-16-8.8-33.6-14.4-52-15.2-7.2 15.2-12 32.8-12 52z" fill="#ffa9c8"/><path d="M243.1 337.6c1.6 4.8 3.2 8.8 4.8 13.6 11.2-26.4 11.2-57.6 0-85.6-9.6 22.4-11.2 47.2-4.8 72zm-84-140.8c17.6 23.2 44 38.4 74.4 42.4-18.4-23.2-45.6-38.4-74.4-42.4z" fill="#ff9100"/></svg>