<svg xmlns="http://www.w3.org/2000/svg" viewBox="0 0 504 504"><path fill="#76e83a" d="M252.4 44.6L8.4 459.8h488z"/><path fill="#3dce20" d="M252.4 103L8.4 459.8h488z"/><path fill="#0fb213" d="M252.4 155L8.4 459.8h488z"/><path d="M496.4 467.8H8.4c-3.2 0-5.6-1.6-7.2-4s-1.6-5.6 0-8l244-416c3.2-4.8 11.2-4.8 13.6 0l244 415.2c1.6 2.4 1.6 5.6 0 8-.8 3.2-3.2 4.8-6.4 4.8zM22 451.8h460.8l-230.4-392L22 451.8z" fill="#2f5068"/><circle cx="252.4" cy="325.4" r="130.4" fill="#87c2cc"/><path d="M252.4 195c72 0 130.4 58.4 130.4 130.4s-58.4 130.4-130.4 130.4" fill="#5f9aa0"/><path d="M252.4 463c-76 0-138.4-61.6-138.4-138.4S176.4 187 252.4 187s138.4 61.6 138.4 138.4S328.4 463 252.4 463zm0-260C185.2 203 130 258.2 130 325.4S185.2 447 252.4 447s122.4-55.2 122.4-122.4S319.6 203 252.4 203z" fill="#2f5068"/><path fill="#4ddff7" d="M324.4 367.8l-72 43.2-72-43.2v-85.6l72-43.2 72 43.2z"/><path fill="#4bf9f4" d="M180.4 371.8v-89.6l72.8-43.2 75.2 44.8"/><g fill="#2f5068"><path d="M252.4 419c-1.6 0-2.4 0-4-.8L174.8 375c-2.4-1.6-2.4-4-2.4-7.2v-85.6c0-3.2 0-5.6 3.2-7.2l73.6-43.2c2.4-1.6 4.8-1.6 8 0L330 275c2.4 1.6 2.4 4 2.4 7.2v85.6c0 3.2 0 5.6-3.2 7.2l-73.6 43.2c-.8 0-1.6.8-3.2.8zm-64-55.2l64 38.4 64-38.4V287l-64-38.4-64 38.4v76.8z"/><path d="M324.4 371.8c-1.6 0-5.6 0-7.2-.8l-64.8-37.6-65.6 38.4c-4 2.4-8 0-10.4-4s-.8-8 3.2-10.4l69.6-40c2.4-1.6 5.6-1.6 8 0l68 39.2c4 2.4 8 7.2 5.6 10.4-1.6 3.2-4 4.8-6.4 4.8z"/></g><g fill="#2f5068"><path d="M252.4 333.4c-4 0-8-3.2-8-8v-84.8c0-4 4-8 8-8s8 3.2 8 8v84c0 4.8-4 8.8-8 8.8z"/><path d="M252.4 332.6c-1.6 0-2.4 0-4-.8l-69.6-40c-4-2.4-4.8-8-2.4-11.2 2.4-4 5.6-4.8 9.6-2.4l66.4 37.6 64.8-37.6c4-2.4 7.2-.8 9.6 3.2s2.4 8-1.6 10.4l-69.6 40c-.8.8-1.6.8-3.2.8z"/></g><path d="M252.4 416.6c-4 0-8-3.2-8-8v-84c0-4 4-8 8-8s8 3.2 8 8v84c0 4.8-4 8-8 8z" fill="#2f5068"/></svg>