<svg xmlns="http://www.w3.org/2000/svg" viewBox="0 0 503.6 503.6"><path fill="#76e83a" d="M459.4 373.2l-208 122.4-208-122.4V130l208-122.4 208 122.4z"/><path fill="#5ccc1b" d="M464.2 374L253.8 495.6 43.4 373.2V131.6"/><path fill="#acff7b" d="M43.4 371.6V130L254.6 6.8"/><path d="M251.4 503.6c-1.6 0-2.4 0-4-.8L37.8 380.4c-2.4-1.6-2.4-4-2.4-7.2V130c0-3.2 0-5.6 2.4-7.2L248.2 1.2c2.4-1.6 4.8-1.6 8 0l209.6 121.6c2.4 1.6 2.4 4 2.4 7.2v244c0 3.2 0 5.6-2.4 7.2L254.6 502c-.8.8-1.6 1.6-3.2 1.6zm-200-134.4l200 117.6 200-117.6V134l-200-116.8L51.4 134v235.2z" fill="#2f5068"/><path fill="#b4d0d8" d="M251.4 251.6L41.8 372.4 251.4 15.6v233.6z"/><path d="M127.4 227.6c-1.6 8-2.4 16.8-2.4 25.6 0 22.4 5.6 44 16 62.4l110.4-64V126c-32 0-60.8 12-83.2 31.2l-40.8 70.4z" fill="#d2eac3"/><path d="M251.4 126c-32 0-60.8 12-83.2 31.2l-40.8 70.4c-1.6 8-2.4 16.8-2.4 25.6 0 22.4 5.6 44 16 62.4" fill="#edfce3"/><path d="M41.8 380.4c-2.4 0-2.4-2.4-4-4-2.4-2.4-2.4-8.8-.8-12L244.2 11.6c1.6-3.2 5.6-4.8 8.8-4s5.6 4 5.6 8v236c0 3.2-1.6 5.6-4 7.2l-208.8 120c-.8.8-2.4 1.6-4 1.6zM243.4 45.2L64.2 350l179.2-103.2V45.2z" fill="#2f5068"/><path fill="#a0b8c1" d="M251.4 251.6L461 372.4 251.4 15.6v233.6z"/><path d="M251.4 251.6l110.4 64c10.4-18.4 16-39.2 16-62.4 0-8.8-.8-17.6-2.4-25.6L334.6 158c-22.4-19.2-51.2-31.2-83.2-31.2v124.8z" fill="#addb91"/><path d="M361.8 315.6c10.4-18.4 16-39.2 16-62.4 0-8.8-.8-17.6-2.4-25.6L334.6 158c-22.4-19.2-51.2-31.2-83.2-31.2" fill="#d2eac3"/><path d="M461 380.4c-1.6 0-2.4 0-4-.8L247.4 258c-2.4-.8-4-4-4-6.4v-236c0-4 2.4-6.4 5.6-8 3.2-.8 7.2.8 8.8 4L465 364.4c1.6 3.2 1.6 11.2-1.6 13.6-.8 1.6-.8 2.4-2.4 2.4zM259.4 246.8L438.6 350 259.4 45.2v201.6z" fill="#2f5068"/><path fill="#678389" d="M41.8 371.6l209.6-120.8L461 371.6z"/><path d="M361.8 314.8l-110.4-64-110.4 64c14.4 26.4 40.8 48.8 69.6 56.8h81.6c28-8 55.2-30.4 69.6-56.8z" fill="#94c474"/><path d="M141 314.8c14.4 26.4 44 48.8 72.8 56.8h78.4c28.8-8 55.2-30.4 70.4-56.8" fill="#addb91"/><g fill="#2f5068"><path d="M461 379.6H41.8c-4 0-4-1.6-4.8-4.8-.8-3.2-2.4-7.2.8-9.6l209.6-120.8c2.4-1.6 5.6-1.6 8 0l208.8 120.8c3.2.8.8 4 .8 7.2 0 4 .8 7.2-4 7.2zm-389.6-16h359.2l-179.2-104-180 104z"/><path d="M251.4 380.4c-70.4 0-127.2-56.8-127.2-127.2S181 126 251.4 126s127.2 56.8 127.2 127.2-56.8 127.2-127.2 127.2zm0-238.4c-61.6 0-111.2 49.6-111.2 111.2s49.6 111.2 111.2 111.2 111.2-49.6 111.2-111.2S313 142 251.4 142z"/></g></svg>