<?xml version="1.0" encoding="iso-8859-1"?>
<!-- Generator: Adobe Illustrator 16.0.0, SVG Export Plug-In . SVG Version: 6.00 Build 0)  -->
<!DOCTYPE svg PUBLIC "-//W3C//DTD SVG 1.1//EN" "http://www.w3.org/Graphics/SVG/1.1/DTD/svg11.dtd">
<svg version="1.1" id="Capa_1" xmlns="http://www.w3.org/2000/svg" xmlns:xlink="http://www.w3.org/1999/xlink" x="0px" y="0px"
	 width="32.004px" height="32.004px" viewBox="0 0 32.004 32.004" style="enable-background:new 0 0 32.004 32.004;"
	 xml:space="preserve">
<g>
	<g id="Layer_1_copy_10_">
		<path d="M9.325,11.493c-0.005-0.184-0.012-0.407-0.02-0.663c-0.016-0.259,0.051-0.542,0.079-0.861
			c0.032-0.32,0.076-0.667,0.196-1.02C9.683,8.592,9.771,8.2,9.967,7.835c0.087-0.188,0.175-0.381,0.266-0.575
			c0.097-0.191,0.229-0.364,0.345-0.551c0.227-0.384,0.521-0.721,0.821-1.059c0.291-0.353,0.65-0.623,0.978-0.933
			c0.359-0.254,0.701-0.548,1.068-0.755c0.36-0.228,0.717-0.432,1.068-0.6c0.345-0.187,0.688-0.314,1.002-0.453
			c0.483-0.188,0.913-0.334,1.268-0.438c-0.148-0.364-0.275-0.743-0.37-1.147C16.316,0.908,16.231,0.483,16.222,0
			c0.465,0.13,0.856,0.319,1.234,0.517c0.377,0.2,0.722,0.423,1.044,0.665c0.648,0.479,1.202,1.033,1.705,1.625
			c0.381,0.449,0.414,1.076,0.13,1.555l-0.058,0.096c-0.463,0.772-1.012,1.488-1.674,2.13c-0.33,0.323-0.692,0.624-1.094,0.901
			c-0.203,0.135-0.416,0.267-0.634,0.394c-0.226,0.123-0.463,0.237-0.723,0.336c-0.018-0.278-0.014-0.542,0.006-0.797
			c0.025-0.251,0.058-0.498,0.096-0.741c0.087-0.479,0.209-0.934,0.367-1.367c0.019-0.046,0.036-0.09,0.054-0.136
			c-0.152,0.019-0.314,0.04-0.488,0.065c-0.272,0.058-0.582,0.097-0.891,0.188c-0.318,0.072-0.643,0.173-0.974,0.293
			c-0.346,0.101-0.656,0.278-1.007,0.419c-0.309,0.191-0.667,0.348-0.96,0.581c-0.307,0.221-0.617,0.446-0.87,0.723
			c-0.13,0.134-0.279,0.256-0.396,0.4c-0.112,0.148-0.223,0.295-0.332,0.438c-0.243,0.28-0.391,0.602-0.555,0.902
			c-0.181,0.294-0.289,0.599-0.383,0.887c-0.089,0.287-0.215,0.547-0.253,0.792c-0.046,0.246-0.087,0.459-0.12,0.635
			c-0.067,0.357-0.105,0.562-0.105,0.562S9.337,11.856,9.325,11.493z M31.09,25.121h-4.779v-2.234h4.203v-1.524h-4.203v-1.812h4.576
			v-1.525h-6.344v8.625h6.547V25.121z M8.135,31.785v0.107H7.186c-0.057-0.193-0.09-0.404-0.09-0.828
			c0-0.561-0.035-0.777-0.67-0.777H5.541v1.605H4.699v-4.104h2.076c1.092,0,1.291,0.808,1.291,1.16c0,0.453-0.229,0.84-0.635,0.979
			c0.338,0.147,0.521,0.272,0.521,1.039C7.953,31.569,7.953,31.717,8.135,31.785z M7.209,29.035c0-0.217-0.098-0.537-0.6-0.537
			H5.541v1.1h1.004C6.992,29.598,7.209,29.442,7.209,29.035z M19.445,10.518c-0.284,0.242-0.642,0.409-0.942,0.609
			c-0.347,0.151-0.651,0.337-0.993,0.449c-0.326,0.13-0.648,0.241-0.965,0.322c-0.306,0.1-0.613,0.148-0.884,0.214
			c-0.173,0.031-0.333,0.057-0.486,0.08c0.015-0.047,0.034-0.091,0.05-0.138c0.145-0.438,0.254-0.896,0.326-1.377
			c0.03-0.244,0.055-0.491,0.072-0.743c0.014-0.255,0.009-0.52-0.017-0.796c-0.257,0.107-0.492,0.228-0.713,0.357
			c-0.214,0.133-0.42,0.271-0.621,0.414c-0.392,0.289-0.745,0.6-1.064,0.932c-0.645,0.661-1.171,1.394-1.609,2.179l-0.056,0.097
			c-0.27,0.488-0.217,1.113,0.177,1.551c0.52,0.577,1.09,1.114,1.752,1.573c0.329,0.231,0.681,0.444,1.064,0.633
			c0.383,0.187,0.778,0.365,1.248,0.479c-0.024-0.482-0.122-0.905-0.23-1.317c-0.106-0.401-0.244-0.776-0.403-1.136
			c0.351-0.114,0.775-0.272,1.254-0.475c0.309-0.148,0.648-0.286,0.988-0.483c0.346-0.178,0.696-0.393,1.049-0.631
			c0.361-0.217,0.694-0.522,1.047-0.787c0.318-0.319,0.668-0.601,0.949-0.961c0.291-0.347,0.573-0.693,0.789-1.083
			c0.11-0.19,0.236-0.367,0.328-0.562c0.084-0.197,0.168-0.391,0.248-0.583c0.184-0.37,0.262-0.765,0.354-1.125
			c0.109-0.356,0.145-0.705,0.166-1.025c0.021-0.32,0.076-0.605,0.055-0.863c-0.018-0.255-0.027-0.479-0.04-0.662
			c-0.021-0.362-0.034-0.569-0.034-0.569s-0.031,0.205-0.09,0.564c-0.025,0.177-0.062,0.392-0.102,0.639
			c-0.029,0.246-0.148,0.509-0.229,0.799c-0.084,0.29-0.186,0.598-0.354,0.898c-0.155,0.304-0.293,0.63-0.528,0.917
			c-0.104,0.147-0.211,0.297-0.317,0.449c-0.113,0.146-0.259,0.273-0.387,0.411C20.05,10.054,19.746,10.288,19.445,10.518z
			 M10.85,27.789l1.445,4.104h-0.932l-0.264-0.846H9.585L9.3,31.893H8.396l1.463-4.104H10.85z M10.861,30.34l-0.512-1.623h-0.007
			L9.815,30.34H10.861z M0.85,28.516h1.24v3.377h0.855v-3.377h1.242v-0.727H0.849L0.85,28.516L0.85,28.516z M14.184,18.021h-1.801
			v8.625h1.801V18.021z M5.938,19.922c0.287,1.656,0.445,2.498,1.334,6.728h1.729l2.428-8.625H9.602
			c-1.119,4.743-1.262,5.489-1.406,6.307H8.172c-0.191-1.116-0.277-1.573-1.285-6.307h-1.91c-0.914,4.528-1.045,5.405-1.201,6.307
			H3.752c-0.156-0.985-0.266-1.586-1.371-6.307h-1.92l2.438,8.625h1.682c0.926-4.445,1.068-5.07,1.334-6.728H5.938z M20.9,24.907
			c0-1.179-0.072-1.636-1.404-1.636h-1.861v3.378h-1.768v-8.625h4.359c2.295,0,2.717,1.692,2.717,2.438
			c0,0.947-0.48,1.766-1.334,2.053c0.709,0.312,1.092,0.578,1.092,2.188c0,1.261,0,1.574,0.385,1.718v0.229h-1.992
			C20.973,26.239,20.9,25.793,20.9,24.907z M21.141,20.641c0-0.457-0.203-1.129-1.262-1.129h-2.244v2.308h2.111
			C20.684,21.819,21.141,21.494,21.141,20.641z M20.797,31.895h0.857v-1.727h1.805v-0.727h-1.805v-0.926h2.062v-0.728h-2.92
			L20.797,31.895L20.797,31.895z M25.133,30.105h2v-0.727h-2v-0.863h2.178v-0.727h-3.018v4.104h3.115v-0.727h-2.275V30.105z
			 M15.352,30.649h-0.01l-1.631-2.859h-0.902v4.104h0.799v-2.926h0.012l1.674,2.926h0.859V27.79h-0.801V30.649z M19.064,29.557
			l-0.998-0.246c-0.172-0.039-0.437-0.108-0.437-0.428c0-0.373,0.392-0.492,0.715-0.492c0.75,0,0.816,0.437,0.843,0.617h0.819
			c-0.006-0.502-0.342-1.326-1.601-1.326c-1.331,0-1.575,0.808-1.575,1.265c0,0.903,0.639,1.051,1.303,1.205l0.438,0.104
			c0.437,0.104,0.744,0.188,0.744,0.508c0,0.436-0.453,0.531-0.856,0.531c-0.75,0-0.865-0.435-0.871-0.662H16.77
			c0,0.508,0.256,1.371,1.754,1.371c0.358,0,1.617-0.109,1.617-1.343C20.141,29.924,19.627,29.694,19.064,29.557z M31.543,31.785
			v0.107h-0.947c-0.057-0.193-0.09-0.404-0.09-0.828c0-0.561-0.037-0.777-0.67-0.777h-0.885v1.605h-0.842v-4.104h2.074
			c1.092,0,1.293,0.808,1.293,1.16c0,0.453-0.23,0.84-0.637,0.979c0.336,0.147,0.521,0.272,0.521,1.039
			C31.361,31.569,31.361,31.717,31.543,31.785z M30.619,29.035c0-0.217-0.098-0.537-0.602-0.537h-1.066v1.1h1.004
			C30.402,29.598,30.619,29.442,30.619,29.035z"/>
	</g>
</g>
<g>
</g>
<g>
</g>
<g>
</g>
<g>
</g>
<g>
</g>
<g>
</g>
<g>
</g>
<g>
</g>
<g>
</g>
<g>
</g>
<g>
</g>
<g>
</g>
<g>
</g>
<g>
</g>
<g>
</g>
</svg>
