<svg id="Logo" xmlns="http://www.w3.org/2000/svg" viewBox="0 0 441 124"><style>.st1{fill:#2a75bb}</style><g id="icon"><path d="M36.5 56.3L93.3 0l62.4 62.1L93.3 124 30.6 62.1l5.9-5.8zm56.8-33.2l-39.4 39 39.4 38.8 39.2-38.8-39.2-39z" fill="#f3a21e"/><path id="_Path_" class="st1" d="M100.4 57.5l13.8-13.7 9.1 9.3-8.9 9L140.6 88l26.2-25.9L140.6 36l-5.7 5.5-9.3-9.2 15-14.6 44.8 44.4-44.8 44.2-44.8-44.2z"/><path id="_Path_2" class="st1" d="M4.7 57.5l40.1-39.8 44.8 44.4-17.9 17.7-9.3-9.2 8.6-8.5L44.8 36 18.6 62.1 44.8 88l6-5.9 9.3 9-15.3 15.2L0 62.1z"/></g><g id="BWEX"><path d="M201.3 27.3h16.3c3.2 0 5.6.1 7.2.4 1.6.3 3 .8 4.3 1.7s2.3 2 3.1 3.4c.8 1.4 1.3 3 1.3 4.8 0 1.9-.5 3.7-1.5 5.3s-2.4 2.8-4.2 3.6c2.5.7 4.4 2 5.7 3.7 1.3 1.7 2 3.8 2 6.2 0 1.9-.4 3.7-1.3 5.4s-2 3.2-3.5 4.2-3.3 1.7-5.5 1.9c-1.4.1-4.7.2-10 .3h-13.9V27.3zm8.3 6.8v9.4h5.4c3.2 0 5.2 0 6-.1 1.4-.2 2.5-.7 3.3-1.5s1.2-1.9 1.2-3.2c0-1.3-.3-2.3-1-3.1-.7-.8-1.7-1.3-3.1-1.4-.8-.1-3.2-.1-7.1-.1h-4.7zm0 16.2v10.9h7.6c3 0 4.9-.1 5.7-.3 1.2-.2 2.2-.8 3-1.6s1.2-2 1.2-3.5c0-1.2-.3-2.3-.9-3.1-.6-.9-1.5-1.5-2.6-1.9-1.1-.4-3.6-.6-7.3-.6h-6.7zm38.7 17.8l-9.8-40.9h8.4l6.2 28.1 7.5-28.1h9.8l7.2 28.5 6.3-28.5h8.3l-9.9 40.9h-8.8l-8.1-30.5-8.1 30.5h-9z" fill="#f2a21f"/><path class="st1" d="M296.4 68.1V27.3h30.3v6.9h-22v9.1h20.5v6.9h-20.5v11.1h22.8v6.9h-31.1zm33.9 0l14-21.3-12.7-19.5h9.6l8.2 13.1 8-13.1h9.6l-12.7 19.8 14 21h-10l-9-14.1-9.1 14.1h-9.9z"/></g><path d="M203.2 77.4h6c1.2 0 2.1 0 2.6.1.6.1 1.1.3 1.6.6s.8.7 1.1 1.2c.3.5.5 1.1.5 1.7 0 .7-.2 1.3-.6 1.9-.4.6-.9 1-1.5 1.3.9.3 1.6.7 2.1 1.4s.7 1.4.7 2.3c0 .7-.2 1.3-.5 2-.3.6-.7 1.2-1.3 1.5s-1.2.6-2 .7c-.5.1-1.7.1-3.6.1h-5.1V77.4zm3 2.5v3.5h2c1.2 0 1.9 0 2.2-.1.5-.1.9-.2 1.2-.5s.4-.7.4-1.2-.1-.8-.4-1.1-.6-.5-1.1-.5c-.3 0-1.2-.1-2.6-.1h-1.7zm0 5.9v4h2.8c1.1 0 1.8 0 2.1-.1.4-.1.8-.3 1.1-.6.3-.3.4-.7.4-1.3 0-.4-.1-.8-.3-1.1s-.5-.5-.9-.7-1.3-.2-2.7-.2h-2.5zm12.1-5.8v-2.7h2.9V80h-2.9zm0 12.3V81.5h2.9v10.8h-2.9zM229 81.5v2.3h-2v4.4c0 .9 0 1.4.1 1.5 0 .1.1.3.3.4.1.1.3.1.5.1.3 0 .6-.1 1.2-.3l.2 2.2c-.7.3-1.4.4-2.3.4-.5 0-1-.1-1.4-.3-.4-.2-.7-.4-.9-.7s-.3-.6-.4-1.1c-.1-.3-.1-1-.1-2v-4.7h-1.3v-2.3h1.3v-2.2l2.9-1.7v3.8h1.9zm4 10.8l-3.4-10.8h2.8l2 7.1 1.9-7.1h2.8l1.8 7.1 2.1-7.1h2.8l-3.5 10.8h-2.8l-1.9-7-1.8 7H233zM247.3 80v-2.7h2.9V80h-2.9zm0 12.3V81.5h2.9v10.8h-2.9zm15.6 0H260v-5.5c0-1.2-.1-1.9-.2-2.3-.1-.3-.3-.6-.6-.8s-.6-.3-1-.3c-.5 0-.9.1-1.3.4-.4.3-.7.6-.8 1.1-.1.4-.2 1.3-.2 2.5v4.9H253V81.5h2.7v1.6c.9-1.2 2.1-1.8 3.6-1.8.6 0 1.2.1 1.7.3s.9.5 1.2.9c.3.4.5.8.6 1.2.1.4.2 1.1.2 1.9v6.7zm18.3-5.5l2.9.9c-.4 1.6-1.2 2.8-2.2 3.6-1 .8-2.4 1.2-4 1.2-2 0-3.6-.7-4.9-2-1.3-1.4-1.9-3.2-1.9-5.6 0-2.5.6-4.4 1.9-5.8 1.3-1.4 3-2.1 5.1-2.1 1.8 0 3.3.5 4.5 1.6.7.6 1.2 1.6 1.5 2.8l-3 .7c-.2-.8-.5-1.4-1.1-1.8-.6-.4-1.2-.7-2-.7-1.1 0-2 .4-2.7 1.2-.7.8-1 2.1-1 3.9 0 1.9.3 3.2 1 4s1.6 1.2 2.7 1.2c.8 0 1.5-.3 2.1-.8.4-.4.8-1.2 1.1-2.3zm8.2 5.5h-2.9V81.5h2.7V83c.5-.7.9-1.2 1.2-1.4.4-.2.8-.3 1.2-.3.7 0 1.3.2 1.9.5l-.9 2.5c-.5-.3-.9-.5-1.3-.5s-.7.1-1 .3c-.3.2-.5.6-.7 1.2-.2.6-.2 1.8-.2 3.6v3.4zm4.1-10.8h3l2.6 7.7 2.5-7.7h3l-3.8 10.4-.7 1.9c-.3.6-.5 1.1-.7 1.4s-.5.6-.8.8-.7.4-1.1.5-.9.2-1.5.2-1.1-.1-1.6-.2l-.3-2.2c.4.1.9.1 1.2.1.7 0 1.2-.2 1.5-.6.3-.4.6-.9.7-1.5l-4-10.8zm12.8 0h2.7v1.6c.3-.5.8-1 1.4-1.3.6-.3 1.2-.5 2-.5 1.3 0 2.3.5 3.2 1.5.9 1 1.3 2.4 1.3 4.1 0 1.8-.4 3.2-1.3 4.2s-2 1.5-3.2 1.5c-.6 0-1.1-.1-1.6-.4-.5-.2-1-.6-1.5-1.2v5.5h-2.9v-15zm2.9 5.2c0 1.2.2 2.1.7 2.7s1.1.9 1.8.9 1.2-.3 1.7-.8c.4-.5.7-1.4.7-2.6 0-1.1-.2-2-.7-2.5-.5-.5-1-.8-1.7-.8s-1.3.3-1.7.8c-.6.5-.8 1.3-.8 2.3zm14.9-5.2v2.3h-2v4.4c0 .9 0 1.4.1 1.5 0 .1.1.3.3.4.1.1.3.1.5.1.3 0 .6-.1 1.2-.3l.2 2.2c-.7.3-1.4.4-2.3.4-.5 0-1-.1-1.4-.3-.4-.2-.7-.4-.9-.7-.2-.3-.3-.6-.4-1.1-.1-.3-.1-1-.1-2v-4.7H318v-2.3h1.3v-2.2l2.9-1.7v3.8h1.9zm1.4 5.3c0-1 .2-1.9.7-2.8.5-.9 1.1-1.6 2-2 .9-.5 1.8-.7 2.9-.7 1.6 0 3 .5 4 1.6s1.6 2.4 1.6 4-.5 3-1.6 4.1c-1.1 1.1-2.4 1.6-4 1.6-1 0-1.9-.2-2.8-.7-.9-.4-1.6-1.1-2.1-2-.5-.8-.7-1.9-.7-3.1zm2.9.1c0 1.1.3 1.9.8 2.5.5.6 1.1.9 1.9.9.7 0 1.4-.3 1.9-.9.5-.6.8-1.4.8-2.5s-.3-1.9-.8-2.4c-.5-.6-1.1-.9-1.9-.9-.7 0-1.4.3-1.9.9s-.8 1.4-.8 2.4zm16.3 5.4V77.4h11.1v2.5h-8.1v3.3h7.5v2.5h-7.5v4.1h8.3v2.5h-11.3zm12.5 0l3.9-5.6-3.7-5.3h3.5l1.9 3 2-3h3.4l-3.7 5.1 4 5.7H365l-2.2-3.4-2.2 3.4h-3.4zm22.5-7.6l-2.8.5c-.1-.6-.3-1-.6-1.3-.3-.3-.8-.4-1.3-.4-.7 0-1.3.2-1.7.7-.4.5-.6 1.3-.6 2.5 0 1.3.2 2.2.6 2.7.4.5 1 .8 1.7.8.5 0 1-.2 1.3-.5s.6-.8.7-1.6l2.8.5c-.3 1.3-.9 2.3-1.7 2.9s-1.9 1-3.3 1c-1.6 0-2.8-.5-3.8-1.5s-1.4-2.4-1.4-4.1c0-1.8.5-3.2 1.4-4.2.9-1 2.2-1.5 3.8-1.5 1.3 0 2.4.3 3.1.9s1.4 1.4 1.8 2.6zm5-7.3v5.5c.9-1.1 2-1.6 3.3-1.6.7 0 1.3.1 1.8.4s.9.6 1.2.9c.3.4.5.8.6 1.3s.1 1.2.1 2.2v6.4h-2.9v-5.7c0-1.1-.1-1.9-.2-2.2-.1-.3-.3-.5-.6-.7-.3-.2-.6-.3-1-.3-.5 0-.9.1-1.3.3-.4.2-.6.6-.8 1-.2.5-.3 1.2-.3 2.1v5.4h-2.9v-15h3zm12 7.4l-2.6-.5c.3-1 .8-1.8 1.5-2.3s1.8-.8 3.2-.8c1.3 0 2.2.2 2.9.5.6.3 1.1.7 1.3 1.2.3.5.4 1.3.4 2.6v3.3c0 1 0 1.7.1 2.1.1.5.3.9.5 1.5h-2.8c-.1-.2-.2-.5-.3-.8 0-.2-.1-.3-.1-.3-.5.5-1 .8-1.6 1.1-.6.2-1.2.4-1.8.4-1.1 0-2-.3-2.6-.9-.6-.6-1-1.4-1-2.3 0-.6.1-1.2.4-1.6.3-.5.7-.8 1.2-1.1.5-.3 1.3-.5 2.3-.7 1.3-.3 2.3-.5 2.8-.7V85c0-.6-.1-.9-.4-1.2s-.8-.4-1.5-.4c-.5 0-.9.1-1.2.3-.3.3-.5.6-.7 1.1zm3.9 2.3c-.4.1-.9.3-1.7.4-.8.2-1.3.3-1.6.5-.4.3-.6.6-.6 1s.1.7.4 1c.3.3.7.4 1.1.4.5 0 1-.2 1.5-.5.3-.3.6-.6.7-.9.1-.2.1-.7.1-1.4v-.5zm15.5 5.2h-2.9v-5.5c0-1.2-.1-1.9-.2-2.3-.1-.3-.3-.6-.6-.8s-.6-.3-1-.3c-.5 0-.9.1-1.3.4-.4.3-.7.6-.8 1.1s-.2 1.3-.2 2.5v4.9h-2.9V81.5h2.7v1.6c.9-1.2 2.1-1.8 3.6-1.8.6 0 1.2.1 1.7.3s.9.5 1.2.9c.3.4.5.8.6 1.2.1.4.2 1.1.2 1.9v6.7zm2.6.8l3.3.4c.1.4.2.6.4.8.3.2.7.3 1.3.3.7 0 1.3-.1 1.7-.3.3-.2.4-.4.6-.7.1-.2.1-.7.1-1.3v-1.6c-.9 1.2-1.9 1.8-3.2 1.8-1.5 0-2.6-.6-3.5-1.8-.7-1-1-2.2-1-3.6 0-1.8.4-3.2 1.3-4.2s2-1.4 3.3-1.4c1.3 0 2.4.6 3.3 1.8v-1.5h2.7v9.7c0 1.3-.1 2.2-.3 2.9-.2.6-.5 1.1-.9 1.5-.4.4-.9.6-1.5.8-.6.2-1.4.3-2.4.3-1.8 0-3.1-.3-3.9-.9-.8-.6-1.2-1.4-1.2-2.4-.1-.4-.1-.5-.1-.6zm2.6-6.4c0 1.1.2 2 .7 2.5.4.5 1 .8 1.6.8.7 0 1.3-.3 1.8-.8s.7-1.4.7-2.4c0-1.1-.2-2-.7-2.5s-1-.8-1.8-.8c-.7 0-1.3.3-1.7.8-.4.5-.6 1.3-.6 2.4zm16.7 2.2l2.9.5c-.4 1-.9 1.8-1.7 2.4-.8.5-1.8.8-3 .8-1.9 0-3.3-.6-4.2-1.8-.7-1-1.1-2.2-1.1-3.7 0-1.8.5-3.2 1.4-4.2.9-1 2.1-1.5 3.6-1.5 1.6 0 2.9.5 3.8 1.6.9 1.1 1.4 2.7 1.3 4.9h-7.2c0 .8.3 1.5.7 2 .4.5 1 .7 1.7.7.4 0 .8-.1 1.1-.4.3-.4.5-.8.7-1.3zm.2-2.9c0-.8-.2-1.5-.6-1.9-.4-.4-.9-.6-1.5-.6s-1.1.2-1.5.7c-.4.5-.6 1.1-.6 1.9h4.2z" fill="#fff" id="Tagline"/></svg>